<svg xmlns="http://www.w3.org/2000/svg" viewBox="0 0 142.97 117.01"><defs><style>.cls-1{fill:#eefc2e;}</style></defs><title>Asset 1</title><g id="Layer_2" data-name="Layer 2"><g id="Layer_1-2" data-name="Layer 1"><path class="cls-1" d="M111.17,73.15a21.85,21.85,0,0,1,.09,13.27,23.55,23.55,0,0,1-7.55,11.35,31.35,31.35,0,0,1-12.1,6,32.61,32.61,0,0,1-6.63,1,30.76,30.76,0,0,1-3.33,0,13.33,13.33,0,0,1-3.27-.56,20.41,20.41,0,0,0,3.23-.29c1.07-.17,2.13-.35,3.17-.6a46.23,46.23,0,0,0,6.11-1.8,37.69,37.69,0,0,0,10.85-6.1A25.6,25.6,0,0,0,109,85.61,30,30,0,0,0,111.17,73.15Z"/><path class="cls-1" d="M121.69,71.82a31.69,31.69,0,0,1,1.46,19,34,34,0,0,1-9.6,17A32.76,32.76,0,0,1,96,116.57a34.32,34.32,0,0,1-18.91-2.23,48.3,48.3,0,0,0,18.17-1.22,34.79,34.79,0,0,0,15.16-8.51,36.63,36.63,0,0,0,9.32-14.75A42.62,42.62,0,0,0,121.69,71.82Z"/><path class="cls-1" d="M133.47,47.91c.85,6.87,4.51,9.9,3,12.3-2,3.18-10.36.85-10.71.75-3.21-.93-9.37-3.64-9.46-7.42-.06-2.72,4-3.67,6.17-7.46a29.9,29.9,0,0,0,3.25-19.25l5.79.21c0-.14,0-.34-.08-.58a14.79,14.79,0,0,0-3.38-6.88,18.07,18.07,0,0,0-4.25-3.87,76.91,76.91,0,0,1-10.44,22.12A76.17,76.17,0,0,1,105.05,48a30.15,30.15,0,0,1,1.38,10.75c-1.54,26.06-39.23,42-44.88,44.25a96.11,96.11,0,0,1-24.12,6.25S56,102,67.05,95.21C77.26,88.9,85.47,82.53,90.3,76.46c9.48-11.93,6.84-16.66,4-19.07-2.23-1.89-7.19-.51-9.25.07a23.74,23.74,0,0,0-8,4.06c-7.52,5.55-10.45,9.29-16.29,15.27A144.26,144.26,0,0,0,48.63,90.92l3.66-5.49c4.21-5.92,10-14.26,13.2-17.87C72.62,59.43,77.14,55.8,78.3,54.88a60.78,60.78,0,0,1,7-4.94,57.18,57.18,0,0,1,15.25-6.38L107.74,35a123.71,123.71,0,0,0,6.87-10.94,39.57,39.57,0,0,0,3.75-8.18,40.58,40.58,0,0,0,1.36-7.07,10.76,10.76,0,0,0,.06-3.5,18,18,0,0,0-.68-2.59c-.3-.94-.84-2.39-.84-2.39A64.15,64.15,0,0,1,142.93,40l-8.67-1.46A23.73,23.73,0,0,0,133.47,47.91Z"/><path class="cls-1" d="M133.47,47.91a26.93,26.93,0,0,0,2.44,7.93,17,17,0,0,1,.75,1.95,3.07,3.07,0,0,1,0,2.05,2.85,2.85,0,0,1-1.45,1.45,6.05,6.05,0,0,1-2,.54,17,17,0,0,1-4.16-.15,23.18,23.18,0,0,1-7.9-2.55,13.75,13.75,0,0,1-3.39-2.43A6.38,6.38,0,0,1,116.57,55a3.59,3.59,0,0,1-.27-2.07,3.7,3.7,0,0,1,1.11-1.78c.49-.49,1-.93,1.57-1.37a14.48,14.48,0,0,0,2.91-2.94,22.41,22.41,0,0,0,1.91-3.67,30.16,30.16,0,0,0,1.8-16.3l0-.15h.14l5.79.2-.13.15a13.28,13.28,0,0,0-2.66-6.38A21.47,21.47,0,0,0,126.44,18a17.89,17.89,0,0,0-2.73-2.18l.24-.09a77.51,77.51,0,0,1-7.37,17.34,77,77,0,0,1-11.37,15l.05-.22a29.49,29.49,0,0,1,1.22,12.69,32,32,0,0,1-4.19,12,49.37,49.37,0,0,1-7.92,10,75.87,75.87,0,0,1-9.83,8.16A118.69,118.69,0,0,1,62.16,103.1a97.21,97.21,0,0,1-24.68,6.51l-3.21.41,3-1.19q8.36-3.3,16.5-7.13a126.08,126.08,0,0,0,15.73-8.6A115.73,115.73,0,0,0,83.88,82.4,51.24,51.24,0,0,0,90.05,76a42.44,42.44,0,0,0,4.87-7.43,17.84,17.84,0,0,0,1.41-4.13A7.05,7.05,0,0,0,96,60.27a5.91,5.91,0,0,0-1.14-1.76,7.69,7.69,0,0,0-.76-.75,4.85,4.85,0,0,0-.4-.28c-.14-.09-.29-.15-.44-.23A8.6,8.6,0,0,0,89,57a26.5,26.5,0,0,0-8.39,2.69,29.64,29.64,0,0,0-3.71,2.44C75.7,63,74.53,64,73.37,64.9c-4.63,3.77-8.56,8.32-12.79,12.6A145.63,145.63,0,0,0,48.9,91.12l-.55-.39c3.29-5,6.8-9.9,10.31-14.77,1.77-2.43,3.55-4.85,5.44-7.2s4-4.51,6.06-6.69,4.25-4.26,6.54-6.21A69.15,69.15,0,0,1,84,50.48a57.8,57.8,0,0,1,16.54-7.12l-.11.07,7.2-8.55h0Q110.31,31,112.74,27a82.17,82.17,0,0,0,4.44-8.33,28.28,28.28,0,0,0,1.5-4.47c.36-1.52.57-3.09.8-4.65a12.19,12.19,0,0,0,.09-4.66A42.48,42.48,0,0,0,118.15.37L118,0l.31.23a65.34,65.34,0,0,1,8.84,8,63.36,63.36,0,0,1,7.21,9.52A65.23,65.23,0,0,1,143,40v0h-.05l-8.67-1.47,0,0A23.56,23.56,0,0,0,133.47,47.91Zm0,0a23.61,23.61,0,0,1,.77-9.42h0l8.67,1.45,0,0a65,65,0,0,0-8.64-22.11A63.84,63.84,0,0,0,127,8.39a64.9,64.9,0,0,0-8.84-8l.18-.13a41,41,0,0,1,1.45,4.52,12.44,12.44,0,0,1-.07,4.75c-.22,1.56-.43,3.13-.79,4.68a28.81,28.81,0,0,1-1.49,4.52A81.75,81.75,0,0,1,113,27.14q-2.41,4.08-5.14,8h0l-7.17,8.57,0,.05-.06,0a57,57,0,0,0-16.38,7.13A68,68,0,0,0,77,56.25c-2.27,2-4.41,4-6.49,6.2s-4.11,4.38-6,6.68-3.64,4.76-5.39,7.19c-3.5,4.87-7,9.75-10.25,14.79l-.55-.39A145.72,145.72,0,0,1,60.05,77c4.19-4.27,8.13-8.86,12.81-12.7,1.16-1,2.34-1.9,3.55-2.8A29.38,29.38,0,0,1,80.21,59a22.58,22.58,0,0,1,4.22-1.77,32,32,0,0,1,4.45-1.05,9.32,9.32,0,0,1,4.67.29,5.85,5.85,0,0,1,.56.28c.18.12.36.24.52.37a9.27,9.27,0,0,1,.84.82,6.86,6.86,0,0,1,1.31,2,8,8,0,0,1,.45,4.67A18.74,18.74,0,0,1,95.76,69,48.37,48.37,0,0,1,84.54,83.14,116.15,116.15,0,0,1,70,93.89a126.63,126.63,0,0,1-15.87,8.6c-5.45,2.55-11,4.9-16.58,7.1l-.19-.78a96.17,96.17,0,0,0,24.5-6.38,117.64,117.64,0,0,0,22.3-12.11A76.37,76.37,0,0,0,94,82.25a48.43,48.43,0,0,0,7.87-9.89A31.35,31.35,0,0,0,106,60.52,29,29,0,0,0,104.84,48l0-.13.09-.1a76.27,76.27,0,0,0,11.36-14.9,77.24,77.24,0,0,0,7.4-17.23l.06-.21.17.12a18.53,18.53,0,0,1,2.77,2.23,22.78,22.78,0,0,1,2.3,2.7,15.47,15.47,0,0,1,1.77,3.08,12.45,12.45,0,0,1,.92,3.43v.15h-.15L125.71,27l.12-.14A30.47,30.47,0,0,1,124,43.22a23.76,23.76,0,0,1-2,3.7,15,15,0,0,1-2.94,3c-.54.44-1.08.87-1.57,1.35a3.58,3.58,0,0,0-1.08,1.71,3.51,3.51,0,0,0,.25,2,6.31,6.31,0,0,0,1.17,1.69A13.59,13.59,0,0,0,121.19,59,25.26,25.26,0,0,0,125,60.68a24.27,24.27,0,0,0,4,.93,17.48,17.48,0,0,0,4.15.17,6.33,6.33,0,0,0,2-.54,2.79,2.79,0,0,0,1.43-1.42,3,3,0,0,0,0-2,16.93,16.93,0,0,0-.73-1.95A26.75,26.75,0,0,1,133.47,47.91Z"/><path class="cls-1" d="M49.45,101c-2.69-2-5.39-4-8-6s-5.23-4.16-7.81-6.3A150.37,150.37,0,0,1,20,73.85,115.2,115.2,0,0,1,8.48,57.22,103.13,103.13,0,0,1,.3,38.65l0-.11,0-.13c-.83-4.25.55-9.24,4.64-11.89a7,7,0,0,1,3.69-1.11,6.71,6.71,0,0,1,3.71,1.23,13.32,13.32,0,0,1,4.12,5.05q.34.69.63,1.41l.53,1.23c.35.82.75,1.62,1.14,2.42.8,1.6,1.71,3.17,2.63,4.72,1.9,3.09,4,6.1,6.16,9.07s4.43,5.89,6.7,8.83,4.48,5.85,6.91,8.62q6.46,9,13.51,17.69A163.63,163.63,0,0,1,38,70.61c-2.33-2.92-4.7-5.84-6.94-8.8s-4.54-5.89-6.75-8.91-4.37-6.11-6.35-9.35c-1-1.63-1.93-3.28-2.79-5-.43-.86-.85-1.73-1.23-2.61l-.57-1.33c-.16-.38-.33-.76-.51-1.13A9.54,9.54,0,0,0,10,30a2.75,2.75,0,0,0-1.48-.54A3.14,3.14,0,0,0,7,29.92a6.44,6.44,0,0,0-2.5,3.3,8.4,8.4,0,0,0-.31,4.43l-.06-.24A99.59,99.59,0,0,0,12,55.26,110.63,110.63,0,0,0,23.13,71.32c2.09,2.57,4.19,5.07,6.4,7.5,1.11,1.21,2.22,2.41,3.37,3.59A48,48,0,0,1,36.32,86c2.13,2.53,4.35,5,6.53,7.53l3.31,3.75Z"/></g></g></svg>